<svg width="319" height="403" viewBox="0 0 319 403" fill="none" xmlns="http://www.w3.org/2000/svg">
<path d="M124.787 14.584C115.619 14.584 108.16 20.492 108.16 27.757V226.676C108.16 233.936 115.619 239.85 124.787 239.85H186.064C195.233 239.85 202.69 233.942 202.69 226.676V27.757C202.69 20.492 195.233 14.584 186.064 14.584H124.787ZM186.064 254.439H124.787C107.778 254.439 93.9429 241.983 93.9429 226.682V27.757C93.9429 12.45 107.778 0 124.787 0H186.064C203.07 0 216.9 12.45 216.9 27.757V226.676C216.9 241.983 203.07 254.433 186.064 254.433" fill="white"/>
<path d="M119.104 170.175C107.185 170.175 97.499 160.229 97.499 148.02H104.61C104.61 156.214 111.117 162.886 119.11 162.886C127.103 162.886 133.609 156.214 133.609 148.02H140.721C140.721 160.235 131.029 170.175 119.116 170.175" fill="white"/>
<path d="M155.191 170.175C143.289 170.175 133.597 160.229 133.597 148.02H140.709C140.709 156.214 147.197 162.886 155.191 162.886C163.184 162.886 169.69 156.214 169.69 148.02H176.796C176.796 160.235 167.104 170.175 155.196 170.175" fill="white"/>
<path d="M191.289 170.175C179.376 170.175 169.69 160.229 169.69 148.02H176.796C176.796 156.214 183.302 162.886 191.295 162.886C199.29 162.886 205.79 156.214 205.79 148.02H212.9C212.9 160.235 203.21 170.175 191.295 170.175" fill="white"/>
<path d="M119.104 218.852C107.185 218.852 97.499 208.912 97.499 196.692H104.61C104.61 204.892 111.117 211.563 119.11 211.563C127.103 211.563 133.609 204.892 133.609 196.692H140.721C140.721 208.912 131.029 218.852 119.116 218.852" fill="white"/>
<path d="M155.191 218.852C143.289 218.852 133.597 208.912 133.597 196.692H140.709C140.709 204.892 147.197 211.563 155.191 211.563C163.184 211.563 169.69 204.892 169.69 196.692H176.796C176.796 208.912 167.104 218.852 155.196 218.852" fill="white"/>
<path d="M191.289 218.852C179.376 218.852 169.69 208.912 169.69 196.692H176.796C176.796 204.892 183.302 211.563 191.295 211.563C199.29 211.563 205.79 204.892 205.79 196.692H212.9C212.9 208.912 203.21 218.852 191.295 218.852" fill="white"/>
<path d="M119.321 123.208C107.414 123.208 97.7219 113.268 97.7219 101.047H104.828C104.828 109.247 111.328 115.919 119.321 115.919C127.315 115.919 133.821 109.247 133.821 101.047H140.932C140.932 113.268 131.241 123.208 119.327 123.208" fill="white"/>
<path d="M155.414 123.208C143.506 123.208 133.815 113.268 133.815 101.047H140.926C140.926 109.247 147.421 115.919 155.414 115.919C163.407 115.919 169.907 109.247 169.907 101.047H177.013C177.013 113.268 167.327 123.208 155.414 123.208Z" fill="white"/>
<path d="M191.512 123.208C179.605 123.208 169.907 113.268 169.907 101.047H177.013C177.013 109.247 183.519 115.919 191.512 115.919C199.51 115.919 206.01 109.247 206.01 101.047H213.12C213.12 113.268 203.43 123.208 191.512 123.208Z" fill="white"/>
<path d="M169.643 303.428C169.026 303.428 168.397 303.417 167.75 303.405L165.012 303.328L149.025 287.651L158.835 277.106L170.807 288.833C178.047 288.686 180.722 287.01 181.11 286.052C183.037 281.326 172.893 265.279 159.822 252.399L169.678 241.883C177.172 249.284 201.13 274.748 194.222 291.684C191.042 299.478 182.773 303.428 169.631 303.428" fill="white"/>
<path d="M141.191 303.428C128.055 303.428 119.786 299.478 116.6 291.684C109.7 274.748 133.65 249.284 141.156 241.883L150.994 252.399C137.947 265.308 127.796 281.35 129.718 286.052C130.106 286.993 132.728 288.645 139.786 288.827L155.573 271.363L168.72 286.834L158.006 296.416L155.244 293.165L146.063 303.323L143.078 303.405C142.437 303.417 141.808 303.428 141.191 303.428Z" fill="white"/>
<path d="M137.606 38.649C136.947 38.649 136.401 39.202 136.401 39.878C136.401 40.554 136.942 41.112 137.606 41.112C138.27 41.112 138.811 40.56 138.811 39.878C138.811 39.196 138.27 38.649 137.606 38.649ZM137.606 46.855C133.856 46.855 130.812 43.728 130.812 39.884C130.812 36.039 133.856 32.918 137.606 32.918C141.355 32.918 144.388 36.045 144.388 39.884C144.388 43.722 141.344 46.855 137.606 46.855Z" fill="white"/>
<path d="M172.458 38.649C171.788 38.649 171.247 39.202 171.247 39.878C171.247 40.554 171.794 41.112 172.458 41.112C173.122 41.112 173.657 40.56 173.657 39.878C173.657 39.196 173.122 38.649 172.458 38.649ZM172.458 46.855C168.714 46.855 165.664 43.728 165.664 39.884C165.664 36.039 168.714 32.918 172.458 32.918C176.202 32.918 179.247 36.045 179.247 39.884C179.247 43.722 176.202 46.855 172.458 46.855Z" fill="white"/>
<path d="M140.086 64.0909C141.873 71.2909 148.244 76.6349 155.808 76.6349C163.372 76.6349 169.755 71.2909 171.535 64.0909H140.086ZM155.808 84.8349C142.454 84.8349 131.593 73.6839 131.593 59.9819V55.8789H180.034V59.9819C180.034 73.6839 169.167 84.8349 155.808 84.8349Z" fill="white"/>
<path d="M209.8 152.146V137.562C215.82 137.562 226.28 136.739 228.63 131.255C232.89 121.333 216.78 96.4679 204.55 82.7889L215.03 72.9309C221.14 79.7679 251.14 114.984 241.65 137.121C237.37 147.085 226.66 152.14 209.8 152.14" fill="white"/>
<path d="M101.278 152.146C84.4159 152.146 73.6959 147.091 69.4289 137.127C59.9309 114.99 89.9229 79.767 96.0349 72.937L106.521 82.789C94.2959 96.485 78.1919 121.362 82.4409 131.255C84.7859 136.739 95.2539 137.556 101.278 137.556V152.146Z" fill="white"/>
<path d="M40.1829 336.311C40.1829 338.31 38.5909 339.938 36.6329 339.938H36.2219C34.2769 339.938 32.6779 338.304 32.6779 336.311V336.023C32.6779 334.031 34.2769 332.402 36.2219 332.402H36.6329C38.5849 332.402 40.1829 334.036 40.1829 336.023V336.311ZM36.575 347.357C38.314 347.509 39.554 348.855 39.554 350.631V380.857C39.554 382.649 38.1729 384.06 36.3629 384.06C34.5529 384.06 33.2299 382.643 33.2299 380.857V352.917H15.2339V380.857C15.2339 382.649 13.847 384.06 12.043 384.06C10.238 384.06 8.92194 382.643 8.92194 380.857V352.917H4.81891C3.28491 352.917 2.11597 351.706 2.11597 350.137C2.11597 348.567 3.28491 347.357 4.81891 347.357H8.92194V343.224C8.92194 334.242 14.4049 330.974 19.3359 330.974C21.6339 330.974 23.7089 331.538 25.3719 332.402C26.2189 332.82 26.9769 333.754 26.9769 334.889C26.9769 336.253 25.8719 337.599 24.4089 337.599C23.2919 337.599 22.2569 337.175 20.9349 337.175C17.4439 337.175 15.228 338.392 15.228 343.442V347.362H36.5629L36.575 347.357Z" fill="white"/>
<path d="M36.639 334.566C35.458 334.566 34.8 335.236 34.8 336.023C34.8 337.111 35.452 337.781 36.228 337.781H36.639C37.421 337.781 38.073 337.111 38.073 336.317C38.073 335.242 37.415 334.566 36.639 334.566ZM36.639 342.113H36.228C33.107 342.113 30.574 339.515 30.574 336.317C30.574 332.837 33.107 330.233 36.228 330.233C39.766 330.233 42.299 332.837 42.299 336.023C42.299 339.509 39.766 342.107 36.639 342.107M13.136 350.76H35.346V380.863C35.346 382.103 37.444 382.021 37.444 380.863V350.637C37.444 350.008 37.051 349.579 36.404 349.526L13.136 349.537V343.442C13.136 337.769 15.687 335.012 20.941 335.012C21.764 335.012 22.493 335.136 23.204 335.271C23.609 335.347 24.009 335.436 24.414 335.436C24.655 335.436 24.867 335.089 24.867 334.889C24.867 334.689 24.655 334.454 24.45 334.342C23.38 333.79 21.652 333.131 19.342 333.131C17.391 333.131 11.032 333.86 11.032 343.224V349.532H4.81897C4.45497 349.532 4.21997 349.761 4.21997 350.143C4.21997 350.525 4.44897 350.76 4.81897 350.76H11.032V380.863C11.032 382.103 13.124 382.015 13.136 380.863V350.76ZM36.369 386.235C33.465 386.235 31.12 383.825 31.12 380.857V355.087H17.35V380.857C17.35 383.872 15.022 386.235 12.049 386.235C9.07501 386.235 6.81799 383.825 6.81799 380.857V355.087H4.81897C2.11597 355.087 0 352.912 0 350.137C0 347.363 2.12197 345.193 4.81897 345.193H6.81799V343.224C6.81799 333.261 13.101 328.799 19.342 328.799C21.828 328.799 24.244 329.375 26.33 330.463C28 331.297 29.099 333.043 29.099 334.883C29.099 337.528 26.953 339.756 24.414 339.756C23.744 339.756 23.11 339.65 22.44 339.521C21.981 339.439 21.487 339.339 20.947 339.339C18.449 339.339 17.35 339.727 17.35 343.436V345.193H36.575C39.596 345.44 41.67 347.721 41.67 350.631V380.857C41.67 383.872 39.337 386.235 36.369 386.235Z" fill="white"/>
<path d="M75.917 373.879C75.917 379.652 71.409 384.425 62.505 384.425C57.433 384.425 53.419 383.214 49.869 381.215C49.17 380.722 48.688 379.857 48.688 378.864C48.688 377.441 49.787 376.007 51.397 376.007C51.809 376.007 52.155 376.084 52.643 376.295C55.147 377.436 58.003 378.435 62.1 378.435C67.448 378.435 69.805 376.572 69.805 373.374C69.805 367.249 48.958 370.875 48.958 357.902C48.958 351.477 53.484 346.64 62.511 346.64C66.337 346.64 69.752 347.351 72.585 348.421C73.907 348.85 74.607 350.061 74.607 351.125C74.607 352.624 73.431 353.981 71.821 353.981C71.48 353.981 71.192 353.905 70.927 353.84C68.7 353.123 66.055 352.553 63.005 352.553C57.862 352.553 55.006 354.693 55.006 357.532C55.006 364.95 75.923 359.895 75.923 373.862" fill="white"/>
<path d="M51.397 378.182C51.003 378.182 50.792 378.623 50.792 378.87C50.792 379.217 51.009 379.399 51.068 379.446C54.436 381.333 58.133 382.262 62.499 382.262C69.47 382.262 73.796 379.052 73.796 373.879C73.796 367.954 69.341 366.414 62.517 364.75C58.009 363.651 52.878 362.393 52.878 357.555C52.878 354.258 55.529 350.402 62.993 350.402C65.855 350.402 68.659 350.854 71.545 351.789C72.244 351.765 72.473 351.424 72.473 351.136C72.473 351.019 72.373 350.637 71.932 350.496C68.917 349.361 65.779 348.814 62.494 348.814C55.335 348.814 51.062 352.212 51.062 357.914C51.062 363.616 55.899 365.132 62.74 366.866C67.254 368.007 71.909 369.183 71.909 373.38C71.909 376.078 70.634 380.61 62.094 380.61C57.492 380.61 54.301 379.434 51.779 378.288C51.544 378.182 51.474 378.182 51.391 378.182M62.505 386.594C57.457 386.594 53.002 385.453 48.846 383.12C47.348 382.062 46.572 380.522 46.572 378.87C46.572 375.361 49.928 372.786 53.46 374.308C55.717 375.343 58.291 376.283 62.094 376.283C67.683 376.283 67.683 374.179 67.683 373.385C67.683 372.592 63.669 371.569 61.729 371.075C55.799 369.57 46.836 367.301 46.836 357.92C46.836 349.761 52.984 344.488 62.494 344.488C66.267 344.488 69.911 345.129 73.296 346.398C75.265 347.045 76.693 349.008 76.693 351.142C76.693 353.917 74.495 356.168 71.797 356.168C71.216 356.168 70.757 356.056 70.446 355.98C67.795 355.128 65.409 354.74 62.981 354.74C59.514 354.74 57.092 355.904 57.092 357.561C57.092 358.878 59.749 359.624 63.487 360.547C69.617 362.04 78.016 364.098 78.016 373.891C78.016 380.222 73.22 386.606 62.494 386.606" fill="white"/>
<path d="M115.877 360.618V380.857C115.877 382.65 114.42 384.06 112.68 384.06C110.94 384.06 109.553 382.644 109.553 380.857V361.329C109.553 355.915 107.326 352.63 101.907 352.63C96.9169 352.63 93.2969 355.915 90.5109 359.478V380.851C90.5109 382.644 89.0469 384.055 87.3129 384.055C85.5799 384.055 84.1929 382.638 84.1929 380.851V334.595C84.1929 332.743 85.5739 331.321 87.3129 331.321C89.0529 331.321 90.5109 332.743 90.5109 334.595V353.2C93.4259 349.925 97.2519 346.64 103.429 346.64C111.363 346.64 115.871 352.976 115.871 360.612" fill="white"/>
<path d="M87.325 333.496C86.737 333.496 86.308 333.96 86.308 334.607V380.863C86.308 382.05 88.407 381.968 88.407 380.863V334.607C88.407 333.978 87.931 333.496 87.319 333.496M101.913 350.472C108.213 350.472 111.675 354.328 111.675 361.329V380.857C111.675 382.044 113.767 381.962 113.767 380.857V360.618C113.767 354.734 110.57 348.815 103.435 348.815C98.251 348.815 95.054 351.401 92.415 354.305C94.819 352.195 97.934 350.472 101.913 350.472ZM112.686 386.235C109.8 386.235 107.455 383.825 107.455 380.857V361.329C107.455 355.569 104.657 354.799 101.919 354.799C98.657 354.799 95.683 356.539 92.632 360.248V380.857C92.632 383.825 90.258 386.235 87.331 386.235C84.404 386.235 82.094 383.825 82.094 380.857V334.601C82.094 331.544 84.392 329.158 87.331 329.158C90.27 329.158 92.632 331.597 92.632 334.601V348.233C95.324 346.14 98.804 344.476 103.441 344.476C112.01 344.476 117.987 351.113 117.987 360.612V380.851C117.987 383.819 115.613 386.229 112.686 386.229" fill="white"/>
<path d="M159.522 336.311C159.522 338.31 157.924 339.938 155.984 339.938H155.573C153.621 339.938 152.034 338.304 152.034 336.311V336.023C152.034 334.031 153.621 332.402 155.573 332.402H155.984C157.924 332.402 159.522 334.036 159.522 336.023V336.311ZM155.914 347.357C157.647 347.509 158.893 348.855 158.893 350.631V380.857C158.893 382.649 157.506 384.06 155.708 384.06C153.909 384.06 152.569 382.643 152.569 380.857V352.917H134.591V380.857C134.591 382.649 133.204 384.06 131.399 384.06C129.595 384.06 128.267 382.643 128.267 380.857V352.917H124.164C122.648 352.917 121.467 351.706 121.467 350.137C121.467 348.567 122.648 347.357 124.164 347.357H128.267V343.224C128.267 334.242 133.756 330.974 138.699 330.974C140.985 330.974 143.066 331.538 144.741 332.402C145.564 332.82 146.333 333.754 146.333 334.889C146.333 336.253 145.223 337.599 143.759 337.599C142.654 337.599 141.602 337.175 140.292 337.175C136.824 337.175 134.596 338.392 134.596 343.442V347.362H155.914V347.357Z" fill="white"/>
<path d="M155.984 334.566C154.797 334.566 154.127 335.236 154.127 336.023C154.127 337.111 154.791 337.781 155.573 337.781H155.984C156.754 337.781 157.418 337.111 157.418 336.317C157.418 335.242 156.76 334.566 155.984 334.566ZM155.984 342.113H155.573C152.458 342.113 149.919 339.515 149.919 336.317C149.919 332.837 152.458 330.233 155.573 330.233C159.093 330.233 161.638 332.837 161.638 336.023C161.638 339.509 159.099 342.107 155.99 342.107M132.492 350.76H154.691V380.863C154.679 382.091 156.795 382.021 156.795 380.863V350.637C156.795 350.008 156.39 349.579 155.743 349.526L132.492 349.537V343.442C132.492 337.769 135.049 335.012 140.292 335.012C141.12 335.012 141.849 335.136 142.554 335.271C142.972 335.347 143.36 335.436 143.759 335.436C144 335.436 144.224 335.089 144.224 334.889C144.224 334.689 144 334.448 143.794 334.342C142.725 333.796 140.991 333.137 138.699 333.137C136.742 333.137 130.382 333.866 130.382 343.23V349.537H124.17C123.812 349.537 123.582 349.778 123.582 350.149C123.582 350.519 123.812 350.766 124.17 350.766H130.382V380.868C130.382 382.097 132.492 382.026 132.492 380.868V350.76ZM155.714 386.235C152.816 386.235 150.471 383.825 150.471 380.857V355.087H136.706V380.857C136.706 383.872 134.379 386.235 131.405 386.235C128.431 386.235 126.168 383.825 126.168 380.857V355.087H124.17C121.478 355.087 119.357 352.912 119.357 350.137C119.357 347.363 121.472 345.193 124.17 345.193H126.168V343.224C126.168 333.261 132.463 328.799 138.705 328.799C141.173 328.799 143.589 329.375 145.693 330.463C147.362 331.303 148.443 333.049 148.443 334.883C148.443 337.528 146.304 339.756 143.765 339.756C143.113 339.756 142.472 339.65 141.802 339.521C141.326 339.439 140.844 339.339 140.292 339.339C137.8 339.339 136.706 339.727 136.706 343.436V345.193H155.914C158.94 345.44 161.009 347.721 161.009 350.631V380.857C161.009 383.872 158.676 386.235 155.714 386.235Z" fill="white"/>
<path d="M201.86 360.618V380.857C201.86 382.65 200.39 384.06 198.659 384.06C196.931 384.06 195.533 382.644 195.533 380.857V361.329C195.533 355.915 193.305 352.629 187.892 352.629C182.885 352.629 179.276 355.915 176.502 359.478V380.851C176.502 382.644 175.038 384.055 173.299 384.055C171.559 384.055 170.172 382.638 170.172 380.851V350.278C170.172 348.421 171.553 346.992 173.299 346.992C175.044 346.992 176.502 348.421 176.502 350.278V353.2C179.411 349.925 183.231 346.64 189.42 346.64C197.331 346.64 201.86 352.976 201.86 360.612" fill="white"/>
<path d="M173.299 349.167C172.711 349.167 172.276 349.632 172.276 350.284V380.857C172.276 382.056 174.386 381.979 174.386 380.857V350.284C174.386 349.655 173.91 349.167 173.299 349.167ZM187.898 350.472C194.181 350.472 197.648 354.328 197.648 361.329V380.857C197.648 382.044 199.74 381.962 199.75 380.857V360.618C199.75 354.734 196.555 348.814 189.426 348.814C184.236 348.814 181.045 351.389 178.406 354.287C180.81 352.194 183.919 350.472 187.898 350.472ZM198.659 386.235C195.774 386.235 193.423 383.825 193.423 380.857V361.329C193.423 355.569 190.625 354.799 187.898 354.799C184.624 354.799 181.662 356.538 178.612 360.248V380.857C178.612 383.825 176.226 386.235 173.305 386.235C170.384 386.235 168.062 383.825 168.062 380.857V350.284C168.062 347.227 170.36 344.829 173.305 344.829C175.62 344.829 177.583 346.357 178.318 348.474C181.045 346.263 184.607 344.482 189.426 344.482C197.983 344.482 203.97 351.119 203.97 360.618V380.857C203.97 383.825 201.59 386.235 198.671 386.235" fill="white"/>
<path d="M239.04 357.837C236.47 355.128 233.28 352.571 228.48 352.571C221.87 352.571 216.67 356.627 216.67 365.179C216.67 373.732 221.87 377.794 228.48 377.794C233.28 377.794 236.47 375.225 239.04 372.515V357.837ZM245.37 350.284V382.138C245.37 394.118 239.47 400.819 229.04 400.819C223.41 400.819 217.44 399.044 214.17 397.11C213.48 396.681 212.92 395.975 212.92 394.612C212.92 393.248 214.1 391.678 215.7 391.678C216.19 391.678 216.62 391.831 216.96 391.972C219.87 393.477 223.68 394.694 228.41 394.694C235.5 394.694 239.04 390.773 239.04 383.073V378.294C236.19 381.433 232.38 383.714 227.17 383.714C219.45 383.714 210.36 377.794 210.36 365.179C210.36 352.565 219.45 346.651 227.17 346.651C232.38 346.651 236.19 348.932 239.04 352.071V350.29C239.04 348.503 240.43 347.004 242.17 347.004C243.91 347.004 245.36 348.503 245.36 350.29" fill="white"/>
<path d="M228.48 354.734C222.32 354.734 218.78 358.543 218.78 365.179C218.78 371.816 222.32 375.631 228.48 375.631C232.22 375.631 234.78 373.779 236.94 371.634V358.743C234.78 356.585 232.22 354.74 228.48 354.74M227.17 348.814C221.26 348.814 212.47 353.17 212.47 365.179C212.47 377.189 221.26 381.55 227.17 381.55C231.22 381.55 234.61 379.998 237.51 376.818C235.19 378.564 232.27 379.963 228.48 379.963C220.03 379.963 214.56 374.161 214.56 365.179C214.56 356.198 220.03 350.402 228.48 350.402C232.27 350.402 235.19 351.795 237.51 353.546C234.61 350.366 231.23 348.82 227.17 348.82M215.7 393.853C215.35 393.853 215.03 394.324 215.03 394.612C215.03 395.106 215.13 395.176 215.27 395.253C218.09 396.928 223.77 398.65 229.03 398.65C240.79 398.65 243.26 389.668 243.26 382.138V350.284C243.26 349.702 242.74 349.167 242.17 349.167C241.6 349.167 241.16 349.679 241.16 350.284V383.073C241.16 391.967 236.62 396.857 228.41 396.857C223.97 396.857 219.79 395.87 215.99 393.912C215.99 393.912 215.84 393.853 215.7 393.853ZM229.04 402.988C222.7 402.988 216.49 400.984 213.12 398.991C211.6 398.045 210.81 396.54 210.81 394.618C210.81 391.861 213.05 389.533 215.7 389.533C216.6 389.533 217.3 389.792 217.76 389.98C221.1 391.684 224.64 392.531 228.42 392.531C234.31 392.531 236.94 389.615 236.94 383.079V382.961C234.05 384.895 230.78 385.883 227.17 385.883C217.99 385.883 208.25 378.629 208.25 365.185C208.25 351.742 218 344.488 227.17 344.488C231.01 344.488 234.47 345.605 237.51 347.809C238.38 346.052 240.14 344.841 242.17 344.841C245.1 344.841 247.48 347.292 247.48 350.296V382.15C247.48 395.205 240.59 403 229.04 403" fill="white"/>
<path d="M260.67 362.54H281.17C280.74 355.128 275.32 352.141 270.89 352.141C266.45 352.141 261.09 355.128 260.68 362.54M286.23 378.658C286.23 379.799 285.41 380.721 284.43 381.297C281.37 383.073 278.32 384.425 272.28 384.425C260.94 384.425 254.28 377.512 254.28 365.532C254.28 355.915 259.35 346.651 270.89 346.651C281.59 346.651 287.42 355.128 287.42 364.615C287.42 366.396 286.18 367.825 284.23 367.825H260.67C261.36 374.244 265.33 378.37 272.83 378.37C277 378.37 279.64 377.518 282.21 376.166C282.63 375.954 282.97 375.878 283.46 375.878C284.92 375.878 286.23 377.018 286.23 378.664" fill="white"/>
<path d="M263.13 360.371H278.71C277.46 355.639 273.38 354.305 270.88 354.305C268.38 354.305 264.36 355.639 263.13 360.371ZM283.42 364.703H258.43L258.56 362.423C259.04 353.87 265.29 349.967 270.88 349.967C276.47 349.967 282.79 353.87 283.28 362.417L283.41 364.703H283.42ZM270.88 348.814C260.19 348.814 256.39 357.45 256.39 365.532C256.39 376.313 262.02 382.256 272.27 382.256C278.01 382.256 280.71 380.968 283.39 379.405C283.9 379.105 284.13 378.764 284.13 378.652C284.13 378.206 283.71 378.035 283.45 378.035C279.88 379.816 276.88 380.533 272.82 380.533C264.62 380.533 259.42 375.984 258.57 368.054L258.3 365.65H284.22C285.15 365.65 285.3 365.003 285.3 364.609C285.3 356.744 280.84 348.809 270.87 348.809M272.28 386.594C259.68 386.594 252.17 378.723 252.17 365.532C252.17 355.051 257.96 344.482 270.88 344.482C283.8 344.482 289.53 354.922 289.53 364.615C289.53 367.678 287.25 369.988 284.23 369.988H263.23C264.46 374.108 267.68 376.207 272.82 376.207C276.71 376.207 279 375.419 281.24 374.244C284.44 372.621 288.34 375.102 288.35 378.658C288.35 380.451 287.3 382.103 285.48 383.173C282.49 384.907 279.03 386.594 272.27 386.594" fill="white"/>
<path d="M316.62 349.861C316.62 351.712 315.23 352.923 313.43 352.923H313.07C308.48 352.923 304.73 355.492 302.29 359.195V380.857C302.29 382.649 300.84 384.06 299.1 384.06C297.36 384.06 295.98 382.644 295.98 380.857V350.284C295.98 348.497 297.36 346.998 299.1 346.998C300.83 346.998 302.29 348.497 302.29 350.284V353.346C304.8 349.925 308.41 346.645 313.2 346.645H313.56C315.28 346.645 316.61 348.074 316.61 349.855" fill="white"/>
<path d="M313.57 348.815C310.37 348.815 307.6 350.319 305.05 353.3C307.44 351.648 310.19 350.76 313.07 350.76C313.83 350.76 314.5 350.637 314.5 349.861C314.5 349.25 314.11 348.815 313.57 348.815ZM299.1 349.167C298.55 349.167 298.09 349.679 298.09 350.284V380.857C298.09 382.05 300.19 381.968 300.19 380.857V350.284C300.19 349.702 299.67 349.167 299.1 349.167ZM299.1 386.235C296.22 386.235 293.87 383.825 293.87 380.857V350.284C293.87 347.28 296.22 344.829 299.1 344.829C301.32 344.829 303.24 346.24 304.02 348.233C306.83 345.74 309.91 344.476 313.21 344.476C316.51 344.476 318.73 346.839 318.73 349.855C318.73 352.871 316.44 355.087 313.43 355.087C309.71 355.087 306.64 356.78 304.42 359.872V380.857C304.42 383.825 302.03 386.235 299.1 386.235Z" fill="white"/>
<path d="M140.926 39.86C140.926 41.871 139.34 43.505 137.371 43.505C135.402 43.505 133.821 41.871 133.821 39.86C133.821 37.85 135.408 36.21 137.371 36.21C139.334 36.21 140.926 37.844 140.926 39.86Z" fill="white"/>
<path d="M176.126 40.107C176.126 42.118 174.527 43.752 172.57 43.752C170.613 43.752 169.014 42.118 169.014 40.107C169.014 38.097 170.601 36.457 172.57 36.457C174.539 36.457 176.126 38.091 176.126 40.107Z" fill="white"/>
</svg>
