<svg width="626" height="144" viewBox="0 0 626 144" fill="none" xmlns="http://www.w3.org/2000/svg">
<path fill-rule="evenodd" clip-rule="evenodd" d="M122.763 107.531C140.241 107.531 149.11 98.3367 149.11 87.124L149.072 87.3473C149.072 71.6907 135.316 68.3722 123.723 65.5736C115.278 63.5366 107.982 61.7766 107.982 55.729C107.982 50.2343 113.599 46.0858 123.724 46.0858C128.991 46.1041 134.224 46.9353 139.243 48.5525C139.82 48.7209 140.417 48.8088 141.017 48.8136C142.467 48.8136 143.858 48.2315 144.884 47.1941C145.91 46.1566 146.486 44.7494 146.486 43.2823C146.456 42.0997 146.059 40.9573 145.349 40.0175C144.639 39.0777 143.652 38.3894 142.532 38.0501C136.179 35.7446 129.476 34.5814 122.726 34.6119C104.989 34.6119 96.1206 43.9927 96.1206 56.4015C96.1206 71.2379 110.492 74.8298 122.206 77.759C130.264 79.7728 137.064 81.473 137.064 86.3013C137.064 92.3562 132.444 96.0934 121.95 96.0934C115.564 96.1117 109.253 94.6947 103.474 91.9449C102.701 91.5178 101.842 91.2749 100.961 91.2346C99.8147 91.2797 98.7106 91.6862 97.8034 92.3977C96.8964 93.108 96.2314 94.0881 95.9017 95.1987C95.5719 96.3106 95.5939 97.4994 95.9643 98.5979C96.3349 99.6963 97.0355 100.65 97.9682 101.326C105.561 105.534 114.106 107.672 122.763 107.531ZM100.961 95.4563C100.641 95.4929 100.344 95.6455 100.127 95.8859C99.9095 96.1264 99.7857 96.4388 99.7789 96.7647C99.771 96.9831 99.8176 97.2016 99.9145 97.3969C100.011 97.5934 100.155 97.7606 100.333 97.8863C107.218 101.633 114.946 103.514 122.763 103.343C136.472 103.343 144.933 97.1381 144.933 87.1215C144.933 75.6476 136.177 72.6573 122.763 69.4438C113.934 67.314 103.844 64.8791 103.844 55.5032C103.844 49.1115 109.054 41.6359 123.724 41.6359C129.419 41.6566 135.077 42.5635 140.5 44.3271C141.867 44.3271 142.348 43.6168 142.348 43.0566C142.311 42.7661 142.191 42.4927 142 42.273C141.808 42.0533 141.556 41.8959 141.276 41.8238C135.352 39.6562 129.098 38.5566 122.799 38.5712C108.758 38.5712 100.37 45.1497 100.37 56.1757C100.37 67.2005 109.867 70.1541 123.28 73.5178C132.149 75.722 141.276 78.0019 141.276 86.15C141.276 91.3822 138.8 100.166 122.024 100.166C115.006 100.202 108.066 98.6699 101.7 95.6809C101.472 95.56 101.219 95.4966 100.961 95.4941V95.4563Z" fill="#FFF9EA"/>
<path fill-rule="evenodd" clip-rule="evenodd" d="M100.123 95.8854C100.341 95.645 100.637 95.4924 100.957 95.4558V95.4936C101.215 95.496 101.468 95.5595 101.696 95.6803C108.062 98.6694 115.002 100.201 122.02 100.166C138.796 100.166 141.272 91.3817 141.272 86.1494C141.272 78.0014 132.145 75.7215 123.276 73.5173C109.863 70.1536 100.366 67.2 100.366 56.1752C100.366 45.1492 108.754 38.5707 122.796 38.5707C129.094 38.5561 135.349 39.6557 141.272 41.8233C141.552 41.8953 141.804 42.0528 141.996 42.2725C142.187 42.4922 142.308 42.7656 142.344 43.0561C142.344 43.6163 141.863 44.3266 140.496 44.3266C135.074 42.563 129.415 41.6561 123.72 41.6354C109.05 41.6354 103.84 49.1109 103.84 55.5027C103.84 64.8786 113.93 67.3135 122.759 69.4433C136.173 72.6568 144.93 75.6471 144.93 87.121C144.93 97.1376 136.468 103.343 122.759 103.343C114.942 103.514 107.214 101.633 100.329 97.8858C100.151 97.7601 100.008 97.5929 99.9106 97.3964C99.8137 97.2011 99.7672 96.9826 99.775 96.7642C99.7819 96.4383 99.9057 96.1259 100.123 95.8854ZM96.0798 104.987C104.25 109.528 113.437 111.87 122.759 111.789H122.685C143.747 111.789 153.17 99.4175 153.17 87.1588C153.17 68.2093 136.689 64.211 124.643 61.2952C117.327 59.5389 112.08 58.0804 112.08 55.5394C112.08 52.3258 116.847 50.0825 123.683 50.0825C128.703 50.0898 133.692 50.8965 138.463 52.4746C139.332 52.7077 140.226 52.8335 141.124 52.8481C143.413 52.8579 145.631 52.0377 147.372 50.5353C149.114 49.0328 150.267 46.9494 150.62 44.6622C150.973 42.3738 150.503 40.0341 149.297 38.0666C148.09 36.098 146.227 34.6334 144.043 33.9365C137.246 31.4369 130.066 30.1712 122.833 30.1993C104.172 30.1993 92.089 40.5894 92.089 56.3619C92.089 74.5449 109.642 78.9278 121.32 81.8423L121.355 81.8521C121.483 81.885 121.615 81.9192 121.753 81.9546C125.653 82.9579 133.032 84.8557 133.032 86.3362C133.032 87.8691 133.032 91.9432 121.946 91.9432C116.129 91.8895 110.398 90.5237 105.17 87.9436C103.711 87.2553 102.104 86.9526 100.498 87.0624C98.8916 87.1723 97.3393 87.6922 95.9853 88.5734C94.6314 89.4534 93.5201 90.6665 92.7547 92.0994C91.9894 93.531 91.5951 95.136 91.6086 96.7642C91.6204 98.4021 92.0353 100.012 92.8159 101.447C93.5965 102.882 94.7182 104.099 96.0798 104.987Z" fill="#FFF9EA"/>
<path fill-rule="evenodd" clip-rule="evenodd" d="M64.2118 107.988C66.1452 109.943 68.7675 111.042 71.5018 111.042L71.4278 110.93C72.7937 110.955 74.1507 110.703 75.4189 110.19C76.687 109.676 77.8407 108.911 78.8117 107.938C79.7828 106.966 80.5519 105.808 81.0734 104.531C81.5949 103.254 81.8583 101.884 81.8483 100.502V41.9722C81.8593 39.248 80.8193 36.6264 78.9493 34.6651C77.0793 32.7037 74.5267 31.5577 71.8344 31.4698H34.1435V28.0695C34.1435 20.8563 36.3236 20.1082 41.2012 20.1082C42.1966 20.1313 43.187 20.2571 44.1574 20.4817C45.4356 20.7441 46.7337 20.8942 48.0374 20.9308C50.425 20.8649 52.6984 19.8824 54.3942 18.181C56.09 16.4796 57.0807 14.1875 57.1644 11.7734C57.1264 9.98413 56.5986 8.24001 55.6398 6.73636C54.6809 5.23148 53.3283 4.02565 51.7326 3.25185C47.4684 1.08547 42.7581 -0.0288512 37.9865 0.000440828C25.7185 0.000440828 13.3766 8.63427 13.3766 27.9572V31.6943H9.45966C6.9508 31.6943 4.5447 32.7025 2.77067 34.4966C0.99664 36.2908 0 38.7244 0 41.2631C0 43.8005 0.99664 46.2342 2.77067 48.0284C4.5447 49.8225 6.9508 50.8306 9.45966 50.8306H13.3766V100.727C13.3766 103.502 14.4666 106.164 16.4069 108.127C18.3474 110.09 20.979 111.192 23.7231 111.192C26.4671 111.192 29.0989 110.09 31.0392 108.127C32.9795 106.164 34.0695 103.502 34.0695 100.727V50.8306H61.1922V100.615C61.1922 103.38 62.2783 106.033 64.2118 107.988Z" fill="#FFF9EA"/>
<path fill-rule="evenodd" clip-rule="evenodd" d="M71.8369 25.603H71.024C68.0839 25.603 65.2643 24.4216 63.1853 22.3187C61.1063 20.2158 59.9384 17.3634 59.9384 14.3903C59.8519 12.0823 60.4443 9.80126 61.641 7.83503C62.8375 5.8688 64.5843 4.30654 66.6599 3.34479C68.7354 2.38426 71.0463 2.06813 73.2998 2.43672C75.5532 2.80531 77.6478 3.84156 79.3181 5.41601C80.9882 6.98923 82.1588 9.02991 82.6817 11.2768C83.2044 13.525 83.0557 15.8793 82.2545 18.0409C81.4533 20.2024 80.0355 22.0758 78.181 23.422C76.3263 24.7682 74.1184 25.5274 71.8369 25.603Z" fill="#FFF9EA"/>
<path d="M100.127 95.8849C100.344 95.6445 100.641 95.4919 100.961 95.4552V95.4931C101.219 95.4955 101.472 95.559 101.7 95.6798C108.066 98.6688 115.005 100.201 122.023 100.165C138.8 100.165 141.276 91.3812 141.276 86.1489C141.276 78.0009 132.149 75.721 123.279 73.5168C109.866 70.1531 100.37 67.1995 100.37 56.1747C100.37 45.1487 108.758 38.5702 122.799 38.5702C129.098 38.5556 135.352 39.6552 141.276 41.8228C141.556 41.8948 141.808 42.0523 142 42.272C142.19 42.4917 142.311 42.7651 142.347 43.0555C142.347 43.6157 141.867 44.3261 140.5 44.3261C135.077 42.5625 129.419 41.6556 123.723 41.6349C109.053 41.6349 103.843 49.1104 103.843 55.5022C103.843 64.8781 113.934 67.313 122.763 69.4427C136.176 72.6563 144.933 75.6466 144.933 87.1205C144.933 97.1371 136.472 103.342 122.763 103.342C114.946 103.513 107.218 101.632 100.333 97.8853C100.155 97.7596 100.011 97.5924 99.9142 97.3959C99.8173 97.2006 99.7707 96.9821 99.7786 96.7636C99.7855 96.4378 99.9093 96.1254 100.127 95.8849Z" fill="#FFF9EA"/>
<path fill-rule="evenodd" clip-rule="evenodd" d="M221.31 110.967C218.583 110.957 215.97 109.854 214.045 107.899C212.119 105.945 211.038 103.299 211.038 100.539V62.8281C211.038 51.6154 205.569 50.1569 200.174 50.1569C193.745 50.1569 187.906 53.5205 181.921 60.7349V100.614C181.921 103.389 180.83 106.051 178.889 108.013C176.949 109.976 174.317 111.079 171.573 111.079C168.829 111.079 166.198 109.976 164.257 108.013C162.317 106.051 161.227 103.389 161.227 100.614V10.9129C161.202 9.53496 161.45 8.16558 161.956 6.88527C162.462 5.60497 163.215 4.44063 164.172 3.45813C165.128 2.47685 166.27 1.69812 167.529 1.16843C168.786 0.63873 170.136 0.367778 171.5 0.37388C174.263 0.37388 176.914 1.48453 178.868 3.46051C180.822 5.43772 181.921 8.11796 181.921 10.9129V37.3001C188.034 32.5731 195.546 30.0711 203.241 30.1992C220.091 30.1992 231.804 43.056 231.804 61.444V100.614C231.8 101.991 231.527 103.354 231 104.624C230.472 105.895 229.704 107.047 228.735 108.016C227.767 108.985 226.619 109.75 225.358 110.27C224.096 110.789 222.746 111.051 221.385 111.042L221.31 110.967Z" fill="#FFF9EA"/>
<path fill-rule="evenodd" clip-rule="evenodd" d="M298.601 107.949C300.511 109.9 303.105 111.012 305.82 111.041V110.929C307.185 110.955 308.543 110.702 309.811 110.188C311.079 109.675 312.233 108.909 313.204 107.938C314.175 106.966 314.944 105.808 315.465 104.53C315.987 103.253 316.251 101.884 316.24 100.502V41.9721C316.251 39.248 315.211 36.6264 313.342 34.665C311.471 32.7037 308.919 31.5576 306.226 31.4698H268.646V28.0694C268.646 20.8551 270.789 20.1081 275.704 20.1081C276.7 20.1313 277.69 20.257 278.661 20.4816C279.878 20.7294 281.114 20.8795 282.355 20.9307C284.757 20.8844 287.048 19.9091 288.759 18.2053C290.47 16.5027 291.472 14.2009 291.556 11.7733C291.526 9.98652 291.006 8.24365 290.053 6.73877C289.101 5.23511 287.753 4.02682 286.161 3.25181C281.896 1.08908 277.186 -0.024017 272.416 0.000392973C260.184 0.000392973 247.806 8.63422 247.806 27.9572V31.6943H243.889C241.38 31.6943 238.974 32.7024 237.199 34.4966C235.425 36.2907 234.429 38.7244 234.429 41.2618C234.429 43.8005 235.425 46.2342 237.199 48.0283C238.974 49.8224 241.38 50.8305 243.889 50.8305H247.806V100.726C247.806 103.501 248.895 106.163 250.836 108.126C252.776 110.088 255.408 111.192 258.152 111.192C260.896 111.192 263.528 110.088 265.468 108.126C267.408 106.163 268.499 103.501 268.499 100.726V50.8305H295.622V100.614C295.622 103.361 296.692 105.996 298.601 107.949Z" fill="#FFF9EA"/>
<path fill-rule="evenodd" clip-rule="evenodd" d="M305.521 25.6017C302.58 25.6017 299.76 24.4203 297.681 22.3186C295.603 20.2156 294.435 17.3633 294.435 14.3902C294.348 12.0834 294.941 9.80476 296.135 7.83854C297.331 5.87353 299.075 4.31125 301.149 3.34949C303.222 2.38774 305.532 2.06923 307.783 2.43538C310.036 2.80031 312.13 3.83406 313.801 5.40484C315.472 6.9744 316.646 9.01142 317.173 11.2559C317.7 13.5004 317.556 15.8535 316.761 18.0163C315.965 20.1778 314.553 22.0537 312.703 23.4036C310.854 24.7534 308.65 25.5187 306.37 25.6017H305.521Z" fill="#FFF9EA"/>
<path fill-rule="evenodd" clip-rule="evenodd" d="M382.767 107.901C384.692 109.855 387.304 110.959 390.032 110.968V111.043C391.395 111.053 392.745 110.79 394.006 110.271C395.267 109.752 396.416 108.986 397.384 108.017C398.351 107.048 399.121 105.896 399.647 104.625C400.175 103.356 400.448 101.993 400.453 100.615V61.4453C400.453 43.0573 388.703 30.2005 371.889 30.2005C363.951 30.1224 356.237 32.86 350.088 37.9373C349.364 35.8746 348.027 34.0891 346.262 32.8234C344.495 31.559 342.386 30.8779 340.222 30.873C338.859 30.8681 337.508 31.1379 336.25 31.6676C334.991 32.1972 333.851 32.9759 332.894 33.9572C331.937 34.9397 331.183 36.1041 330.677 37.3844C330.172 38.6647 329.924 40.0341 329.948 41.4132V100.615C330.107 103.288 331.267 105.798 333.194 107.634C335.12 109.47 337.668 110.491 340.314 110.491C342.96 110.491 345.507 109.47 347.434 107.634C349.36 105.798 350.521 103.288 350.679 100.615V60.7362C356.628 53.5218 362.466 50.1582 368.896 50.1582C374.254 50.1582 379.76 51.6166 379.76 62.8293V100.54C379.76 103.3 380.841 105.946 382.767 107.901Z" fill="#FFF9EA"/>
<path fill-rule="evenodd" clip-rule="evenodd" d="M418.597 135.896C428.255 140.968 438.975 143.62 449.858 143.633V143.521C472.546 143.521 486.071 128.421 486.071 103.155V41.5616C486.061 38.7691 484.96 36.0937 483.008 34.1189C481.056 32.1454 478.411 31.0311 475.65 31.0214C473.746 31.0275 471.88 31.5681 470.261 32.5848C468.643 33.6015 467.336 35.0527 466.486 36.7772C460.571 32.5079 453.465 30.2561 446.2 30.3488C428.167 30.3488 409.027 44.3651 409.027 70.4154C409.027 96.4658 428.167 110.481 446.2 110.481C453.002 110.548 459.673 108.585 465.377 104.837V105.062C465.377 117.732 460.204 123.375 448.638 123.375C441.369 123.408 434.194 121.718 427.687 118.442C426.414 117.888 425.045 117.595 423.659 117.583C421.107 117.632 418.674 118.686 416.88 120.522C415.085 122.357 414.071 124.83 414.051 127.412C413.974 129.111 414.357 130.798 415.158 132.294C415.958 133.789 417.148 135.035 418.597 135.896ZM448.749 50.0453C436.666 50.0453 429.719 57.5208 429.719 70.2653C429.719 83.011 436.666 90.4853 448.749 90.4853C451.895 90.4085 454.993 89.6822 457.852 88.3519C460.711 87.0215 463.272 85.1152 465.377 82.7486V57.782C463.272 55.4167 460.711 53.5103 457.852 52.1799C454.993 50.8496 451.895 50.1234 448.749 50.0453Z" fill="#FFF9EA"/>
<path fill-rule="evenodd" clip-rule="evenodd" d="M495.341 70.9367C495.341 96.5013 510.122 111.75 534.843 111.75V111.826C543.919 112.191 552.907 109.879 560.709 105.173C562.331 104.354 563.708 103.111 564.695 101.574C565.683 100.036 566.245 98.2588 566.325 96.4268C566.267 94.7938 565.808 93.1998 564.99 91.7901C564.173 90.3805 563.022 89.1978 561.641 88.3496C560.26 87.5013 558.691 87.0131 557.078 86.9289C555.464 86.8447 553.854 87.1669 552.395 87.8686C547.292 90.5513 541.586 91.8402 535.839 91.6058C525.752 91.6058 519.433 87.5697 516.995 79.5705H558.307C559.674 79.6108 561.035 79.3716 562.307 78.8651C563.58 78.3598 564.738 77.5981 565.712 76.6266C566.686 75.6563 567.454 74.4957 567.973 73.2166C568.491 71.9363 568.748 70.5632 568.727 69.1804C568.727 50.381 557.493 30.1976 532.108 30.1976C506.722 30.1976 495.341 50.6422 495.341 70.9367ZM522.511 52.4937C519.748 54.6101 517.747 57.5832 516.81 60.9579H547.405C546.469 57.5832 544.467 54.6101 541.706 52.4937C538.944 50.3762 535.574 49.2301 532.108 49.2301C528.643 49.2301 525.271 50.3762 522.511 52.4937Z" fill="#FFF9EA"/>
<path d="M587.464 111.042C584.737 111.032 582.123 109.929 580.199 107.975C578.273 106.021 577.192 103.374 577.192 100.615V41.4126C577.174 38.9741 577.999 36.6051 579.524 34.7157C581.049 32.8264 583.179 31.5352 585.545 31.0653C587.912 30.5954 590.366 30.9761 592.484 32.1417C594.602 33.3085 596.251 35.1857 597.146 37.4509C602.067 32.8667 608.489 30.2853 615.179 30.1999C616.574 30.1242 617.969 30.3366 619.28 30.8236C620.591 31.3118 621.79 32.0648 622.803 33.0376C623.816 34.0103 624.624 35.182 625.174 36.4806C625.724 37.7792 626.008 39.1779 626.005 40.59C626.011 41.957 625.743 43.3118 625.216 44.5701C624.69 45.8297 623.916 46.9672 622.941 47.9143C621.966 48.8614 620.813 49.5985 619.548 50.0806C618.284 50.5627 616.935 50.78 615.584 50.7189C612.115 50.6848 608.692 51.5123 605.612 53.1282C602.533 54.7441 599.892 57.0997 597.922 59.9874V100.615C597.913 101.995 597.634 103.358 597.103 104.628C596.572 105.899 595.8 107.051 594.828 108.019C593.857 108.988 592.707 109.753 591.444 110.272C590.18 110.791 588.828 111.052 587.464 111.042Z" fill="#FFF9EA"/>
</svg>
